<?xml version="1.0" encoding="utf-8"?>
<!-- (c) Yves Sablonier, Zurich, Licence: GPL V2 or later -->
<!DOCTYPE svg PUBLIC "-//W3C//DTD SVG 1.1//EN" "http://www.w3.org/Graphics/SVG/1.1/DTD/svg11.dtd">
<svg version="1.1" id="Ebene_1" xmlns="http://www.w3.org/2000/svg" xmlns:xlink="http://www.w3.org/1999/xlink" x="0px" y="0px"
	 width="595.279px" height="841.89px" viewBox="0 0 595.279 841.89" enable-background="new 0 0 595.279 841.89"
	 xml:space="preserve">
<circle fill="none" stroke="#231F20" stroke-width="1.5" cx="76.917" cy="40.917" r="6.472"/>
<g>
	<path d="M73.756,44.339v-7.042c0-0.236,0.219-0.354,0.659-0.354H74.8c0.439,0,0.657,0.119,0.653,0.356v2.727h2.976v-2.727
		c0-0.237,0.219-0.356,0.656-0.356h0.385c0.438,0,0.656,0.118,0.656,0.354v7.042c0,0.233-0.212,0.349-0.635,0.349
		c-0.007,0-0.014,0-0.021,0h-0.385c-0.438,0-0.656-0.116-0.656-0.349v-2.874h-2.976v2.874c0,0.233-0.21,0.349-0.632,0.349
		c-0.007,0-0.014,0-0.021,0h-0.385c-0.007,0-0.015,0-0.021,0C73.968,44.688,73.756,44.572,73.756,44.339z"/>
</g>
</svg>
