<?xml version="1.0" encoding="utf-8"?>
<!-- (c) Yves Sablonier, Zurich, Licence: GPL V2 or later -->
<!DOCTYPE svg PUBLIC "-//W3C//DTD SVG 1.1//EN" "http://www.w3.org/Graphics/SVG/1.1/DTD/svg11.dtd">
<svg version="1.1" id="Ebene_1" xmlns="http://www.w3.org/2000/svg" xmlns:xlink="http://www.w3.org/1999/xlink" x="0px" y="0px"
	 width="595.279px" height="841.89px" viewBox="0 0 595.279 841.89" enable-background="new 0 0 595.279 841.89"
	 xml:space="preserve">
<circle fill="none" stroke="#231F20" stroke-width="1.5" cx="76.917" cy="40.917" r="6.472"/>
<g>
	<path d="M74.386,43.939c0-0.168,0.084-0.373,0.252-0.615c0.168-0.241,0.311-0.362,0.429-0.362c0.043,0,0.139,0.042,0.29,0.126
		c0.15,0.084,0.344,0.168,0.582,0.253c0.238,0.084,0.485,0.126,0.743,0.126c0.69,0,1.035-0.267,1.035-0.802
		c0-0.237-0.11-0.437-0.329-0.598c-0.22-0.162-0.485-0.303-0.795-0.425s-0.62-0.262-0.929-0.42
		c-0.309-0.158-0.574-0.402-0.794-0.732c-0.221-0.33-0.332-0.734-0.332-1.211c0-0.51,0.132-0.941,0.395-1.292
		c0.264-0.352,0.584-0.599,0.962-0.741c0.377-0.143,0.794-0.214,1.249-0.214c0.559,0,1.029,0.081,1.41,0.242
		c0.382,0.161,0.572,0.336,0.572,0.526c0,0.161-0.07,0.362-0.209,0.602c-0.14,0.24-0.271,0.36-0.397,0.36
		c-0.028,0-0.094-0.025-0.195-0.075c-0.102-0.05-0.245-0.099-0.429-0.145s-0.381-0.07-0.592-0.07c-0.379,0-0.644,0.066-0.796,0.199
		s-0.228,0.283-0.228,0.452c0,0.226,0.11,0.417,0.329,0.573c0.22,0.156,0.483,0.292,0.79,0.409c0.307,0.117,0.617,0.254,0.929,0.412
		s0.579,0.403,0.8,0.735c0.221,0.332,0.332,0.736,0.332,1.214c0,0.44-0.072,0.824-0.215,1.15s-0.337,0.579-0.583,0.758
		c-0.245,0.179-0.509,0.313-0.792,0.4c-0.283,0.088-0.582,0.132-0.897,0.132c-0.77,0-1.393-0.106-1.869-0.319
		C74.625,44.373,74.386,44.157,74.386,43.939z"/>
</g>
</svg>
